<svg width="8" height="16" viewBox="0 0 8 16" fill="none" xmlns="http://www.w3.org/2000/svg">
<g id="Frame 286">
<path id="Vector" d="M2.12695 0.856445L2.23145 0.875C2.33432 0.900215 2.43306 0.94395 2.52344 1.00391L2.61035 1.06934C2.69275 1.13808 2.76513 1.22049 2.8252 1.31348L6.92969 7.29883L6.98047 7.37793C7.0915 7.56772 7.15037 7.7911 7.15039 8.01855C7.15039 8.27844 7.07341 8.53298 6.92969 8.73828L6.92871 8.73926L2.67969 14.7256C2.60597 14.83 2.51584 14.9188 2.41406 14.9883L2.30859 15.0518C2.16579 15.1244 2.00919 15.1567 1.85156 15.1475V15.1484C1.64088 15.1489 1.43931 15.0728 1.27246 14.9375L1.20312 14.876C1.1278 14.8027 1.06254 14.7178 1.00977 14.624L0.960938 14.5273C0.901575 14.3951 0.866058 14.2508 0.854492 14.1035C0.842971 13.9563 0.856025 13.8077 0.893555 13.666L0.925781 13.5615C0.96268 13.459 1.01249 13.3624 1.07422 13.2754L1.0752 13.2744L4.82129 8.01172L1.20898 2.74023V2.73926C1.12819 2.62208 1.06808 2.48873 1.03223 2.34668C0.996245 2.20408 0.98469 2.05462 0.998047 1.90723L1.0127 1.79785C1.0319 1.68914 1.06544 1.584 1.11133 1.48535C1.17253 1.35384 1.25551 1.23579 1.35742 1.13965C1.45879 1.03625 1.57848 0.956653 1.70996 0.907227L1.81152 0.875977C1.91463 0.850571 2.02118 0.843688 2.12695 0.856445Z" fill="#2B2C34" stroke="#2B2C34" stroke-width="0.3"/>
</g>
</svg>
